<svg width="40" height="40" viewBox="0 0 40 40" xmlns="http://www.w3.org/2000/svg"
  class="common-styles__Icon-sc-3e3551dc-6 dYnncC">
  <path
    d="M24.0546 11.6157H16.0979C14.8534 11.6157 13.7839 12.5253 13.7839 13.7848L11 24.4804C11 25.7399 12.1095 26.8594 13.354 26.8594H15.4732V36.6054C15.4732 37.8649 16.5827 38.9844 17.8272 38.9844H22.2953C23.5398 38.9844 24.6494 37.8649 24.6494 36.6054V26.8594H26.7685C28.013 26.8594 29.0975 25.7799 29.0975 24.5254L26.3137 13.8948C26.3137 12.6353 25.3041 11.6157 24.0596 11.6157H24.0546Z"
    fill="black"></path>
  <path
    d="M20.0466 9.9663C22.5455 9.9663 24.5697 7.96213 24.5697 5.48315C24.5697 3.00417 22.5455 1 20.0466 1C17.5476 1 15.5234 3.00917 15.5234 5.48315C15.5234 7.95713 17.5476 9.9663 20.0466 9.9663Z"
    fill="black"></path>
</svg>