<svg width="20" height="40" viewBox="0 0 20 40" xmlns="http://www.w3.org/2000/svg"
  class="common-styles__Icon-sc-3e3551dc-6 dYnPms">
  <path
    d="M14.06 13.615c.14 0 .255.125.255.28v.255l.065.25 2.683 10.245c-.06.115-.19.215-.294.215H12.65v11.745c0 .165-.22.38-.355.38H7.827c-.13 0-.355-.215-.355-.38V24.86H3.354c-.1 0-.25-.125-.32-.255L5.718 14.29l.065-.25v-.255c0-.095.165-.17.315-.17h7.962zm-.005-2H6.098c-1.245 0-2.314.91-2.314 2.17L1 24.48c0 1.26 1.11 2.38 2.354 2.38h2.12v9.745c0 1.26 1.109 2.38 2.353 2.38h4.468c1.245 0 2.354-1.12 2.354-2.38V26.86h2.12c1.244 0 2.329-1.08 2.329-2.334l-2.784-10.63c0-1.26-1.01-2.28-2.254-2.28h-.005zM10.051 3c1.395 0 2.524 1.114 2.524 2.483 0 1.37-1.134 2.484-2.524 2.484-1.39 0-2.524-1.114-2.524-2.484C7.527 4.113 8.662 3 10.051 3zm0-2C7.552 1 5.528 3.01 5.528 5.483c0 2.474 2.024 4.483 4.523 4.483 2.5 0 4.523-2.004 4.523-4.483C14.574 3.004 12.55 1 10.051 1z"
    fill="#000" fill-opacity=".6"></path>
</svg>