<svg width="40" height="40" viewBox="0 0 40 40" xmlns="http://www.w3.org/2000/svg"
  class="common-styles__Icon-sc-3e3551dc-6 dYnncC">
  <path
    d="M26.7535 11.6157H13.3041C12.0646 11.6157 11 12.5253 11 13.7848V24.4804C11 25.7399 12.0995 26.8594 13.339 26.8594H15.4432V36.6054C15.4432 37.8649 16.5477 38.9844 17.7822 38.9844H22.2254C23.4649 38.9844 24.5644 37.8649 24.5644 36.6054V26.8594H26.6685C27.908 26.8594 28.9876 25.7799 28.9876 24.5254V13.8948C28.9876 12.6353 27.983 11.6157 26.7485 11.6157H26.7535Z"
    fill="black"></path>
  <path
    d="M19.9962 9.9663C22.4802 9.9663 24.4943 7.96213 24.4943 5.48315C24.4943 3.00417 22.4802 1 19.9962 1C17.5122 1 15.498 3.00917 15.498 5.48315C15.498 7.95713 17.5122 9.9663 19.9962 9.9663Z"
    fill="black"></path>
</svg>