<svg width="20" height="40" viewBox="0 0 20 40" xmlns="http://www.w3.org/2000/svg"
  class="common-styles__Icon-sc-3e3551dc-6 dYnPms">
  <path
    d="M16.76 13.623c.134 0 .24.126.24.28v10.639c0 .16-.19.335-.32.335h-4.107V36.63c0 .175-.225.38-.34.38H7.787c-.115 0-.34-.205-.34-.38V24.877H3.34c-.115 0-.34-.205-.34-.38V13.794c0-.11.175-.17.305-.17h13.458-.005zm.004-2H3.306c-1.24 0-2.306.91-2.306 2.17v10.704c0 1.26 1.1 2.38 2.34 2.38h2.106v9.753c0 1.26 1.106 2.38 2.34 2.38h4.447c1.24 0 2.34-1.12 2.34-2.38v-9.753h2.106c1.24 0 2.321-1.08 2.321-2.335V13.904c0-1.26-1.005-2.281-2.24-2.281h.004zM9.999 3c1.38 0 2.5 1.116 2.5 2.486S11.38 7.972 10 7.972 7.498 6.857 7.498 5.486c0-1.37 1.12-2.485 2.5-2.485zm0-2a4.495 4.495 0 0 0-4.502 4.486A4.495 4.495 0 0 0 10 9.972a4.492 4.492 0 0 0 4.5-4.486A4.492 4.492 0 0 0 10 1z"
    fill="#000" fill-opacity=".6"></path>
</svg>